<svg viewBox="0 0 580 360" xmlns="http://www.w3.org/2000/svg"><defs><pattern id="field-grid" width="20" height="20" patternUnits="userSpaceOnUse"><circle cx="1" cy="1" r=".65" fill="#174D36" opacity=".24"/></pattern></defs><path fill="url(#field-grid)" d="M0 0h580v360H0z"/><g fill="none" stroke="#174D36" opacity=".3"><path d="M60 180h460M286 16v326" stroke-dasharray="3 7"/><circle cx="286" cy="131" r="108" stroke-dasharray="2 8"/><path d="M34 55V25h30M516 25h30v30M34 305v30h30M516 335h30v-30"/></g><g fill="#174D36"><circle cx="262" cy="52" r="1.75"/><circle cx="268" cy="52" r="1.55"/><circle cx="274" cy="52" r="1.39"/><circle cx="280" cy="52" r="1.30"/><circle cx="286" cy="52" r="1.33"/><circle cx="292" cy="52" r="1.45"/><circle cx="298" cy="52" r="1.63"/><circle cx="304" cy="52" r="1.84"/><circle cx="310" cy="52" r="2.01"/><circle cx="250" cy="58" r="2.07"/><circle cx="256" cy="58" r="2.10"/><circle cx="262" cy="58" r="2.03"/><circle cx="268" cy="58" r="1.87"/><circle cx="274" cy="58" r="1.67"/><circle cx="280" cy="58" r="1.47"/><circle cx="286" cy="58" r="1.34"/><circle cx="292" cy="58" r="1.30"/><circle cx="298" cy="58" r="1.37"/><circle cx="304" cy="58" r="1.52"/><circle cx="310" cy="58" r="1.72"/><circle cx="316" cy="58" r="1.92"/><circle cx="322" cy="58" r="2.06"/><circle cx="238" cy="64" r="1.44"/><circle cx="244" cy="64" r="1.63"/><circle cx="250" cy="64" r="1.83"/><circle cx="256" cy="64" r="2.00"/><circle cx="262" cy="64" r="2.09"/><circle cx="268" cy="64" r="2.08"/><circle cx="274" cy="64" r="1.97"/><circle cx="280" cy="64" r="1.78"/><circle cx="286" cy="64" r="1.58"/><circle cx="292" cy="64" r="1.41"/><circle cx="298" cy="64" r="1.31"/><circle cx="304" cy="64" r="1.32"/><circle cx="310" cy="64" r="1.42"/><circle cx="316" cy="64" r="1.60"/><circle cx="322" cy="64" r="1.81"/><circle cx="328" cy="64" r="1.99"/><circle cx="334" cy="64" r="2.09"/><circle cx="232" cy="70" r="1.34"/><circle cx="238" cy="70" r="1.30"/><circle cx="244" cy="70" r="1.36"/><circle cx="250" cy="70" r="1.52"/><circle cx="256" cy="70" r="1.72"/><circle cx="262" cy="70" r="1.91"/><circle cx="268" cy="70" r="2.05"/><circle cx="274" cy="70" r="2.10"/><circle cx="280" cy="70" r="2.04"/><circle cx="286" cy="70" r="1.89"/><circle cx="292" cy="70" r="1.70"/><circle cx="298" cy="70" r="1.50"/><circle cx="304" cy="70" r="1.35"/><circle cx="310" cy="70" r="1.30"/><circle cx="316" cy="70" r="1.35"/><circle cx="322" cy="70" r="1.50"/><circle cx="328" cy="70" r="1.69"/><circle cx="334" cy="70" r="1.89"/><circle cx="340" cy="70" r="2.04"/><circle cx="226" cy="76" r="1.79"/><circle cx="232" cy="76" r="1.58"/><circle cx="238" cy="76" r="1.41"/><circle cx="244" cy="76" r="1.31"/><circle cx="250" cy="76" r="1.32"/><circle cx="256" cy="76" r="1.42"/><circle cx="262" cy="76" r="1.60"/><circle cx="268" cy="76" r="1.80"/><circle cx="274" cy="76" r="1.98"/><circle cx="280" cy="76" r="2.09"/><circle cx="286" cy="76" r="2.09"/><circle cx="292" cy="76" r="1.99"/><circle cx="298" cy="76" r="1.81"/><circle cx="304" cy="76" r="1.61"/><circle cx="310" cy="76" r="1.43"/><circle cx="316" cy="76" r="1.32"/><circle cx="322" cy="76" r="1.31"/><circle cx="328" cy="76" r="1.40"/><circle cx="334" cy="76" r="1.58"/><circle cx="340" cy="76" r="1.78"/><circle cx="346" cy="76" r="1.96"/><circle cx="220" cy="82" r="2.10"/><circle cx="226" cy="82" r="2.05"/><circle cx="232" cy="82" r="1.90"/><circle cx="238" cy="82" r="1.70"/><circle cx="244" cy="82" r="1.50"/><circle cx="250" cy="82" r="1.36"/><circle cx="256" cy="82" r="1.30"/><circle cx="262" cy="82" r="1.35"/><circle cx="268" cy="82" r="1.49"/><circle cx="304" cy="82" r="1.92"/><circle cx="310" cy="82" r="1.73"/><circle cx="316" cy="82" r="1.52"/><circle cx="322" cy="82" r="1.37"/><circle cx="328" cy="82" r="1.30"/><circle cx="334" cy="82" r="1.34"/><circle cx="340" cy="82" r="1.47"/><circle cx="346" cy="82" r="1.66"/><circle cx="352" cy="82" r="1.86"/><circle cx="220" cy="88" r="1.98"/><circle cx="226" cy="88" r="2.08"/><circle cx="232" cy="88" r="2.09"/><circle cx="238" cy="88" r="1.99"/><circle cx="244" cy="88" r="1.82"/><circle cx="250" cy="88" r="1.61"/><circle cx="256" cy="88" r="1.43"/><circle cx="316" cy="88" r="1.84"/><circle cx="322" cy="88" r="1.64"/><circle cx="328" cy="88" r="1.45"/><circle cx="334" cy="88" r="1.33"/><circle cx="340" cy="88" r="1.30"/><circle cx="346" cy="88" r="1.38"/><circle cx="352" cy="88" r="1.55"/><circle cx="214" cy="94" r="1.48"/><circle cx="220" cy="94" r="1.68"/><circle cx="226" cy="94" r="1.88"/><circle cx="232" cy="94" r="2.03"/><circle cx="238" cy="94" r="2.10"/><circle cx="244" cy="94" r="2.06"/><circle cx="250" cy="94" r="1.93"/><circle cx="322" cy="94" r="1.95"/><circle cx="328" cy="94" r="1.76"/><circle cx="334" cy="94" r="1.55"/><circle cx="340" cy="94" r="1.39"/><circle cx="346" cy="94" r="1.30"/><circle cx="352" cy="94" r="1.33"/><circle cx="358" cy="94" r="1.45"/><circle cx="214" cy="100" r="1.31"/><circle cx="220" cy="100" r="1.40"/><circle cx="226" cy="100" r="1.56"/><circle cx="232" cy="100" r="1.77"/><circle cx="238" cy="100" r="1.95"/><circle cx="244" cy="100" r="2.07"/><circle cx="328" cy="100" r="2.03"/><circle cx="334" cy="100" r="1.87"/><circle cx="340" cy="100" r="1.67"/><circle cx="346" cy="100" r="1.47"/><circle cx="352" cy="100" r="1.34"/><circle cx="358" cy="100" r="1.30"/><circle cx="208" cy="106" r="1.54"/><circle cx="214" cy="106" r="1.38"/><circle cx="220" cy="106" r="1.30"/><circle cx="226" cy="106" r="1.33"/><circle cx="232" cy="106" r="1.46"/><circle cx="238" cy="106" r="1.65"/><circle cx="334" cy="106" r="2.08"/><circle cx="340" cy="106" r="1.97"/><circle cx="346" cy="106" r="1.79"/><circle cx="352" cy="106" r="1.58"/><circle cx="358" cy="106" r="1.41"/><circle cx="364" cy="106" r="1.31"/><circle cx="208" cy="112" r="1.85"/><circle cx="214" cy="112" r="1.65"/><circle cx="220" cy="112" r="1.46"/><circle cx="226" cy="112" r="1.33"/><circle cx="232" cy="112" r="1.30"/><circle cx="238" cy="112" r="1.38"/><circle cx="334" cy="112" r="2.05"/><circle cx="340" cy="112" r="2.10"/><circle cx="346" cy="112" r="2.04"/><circle cx="352" cy="112" r="1.90"/><circle cx="358" cy="112" r="1.70"/><circle cx="364" cy="112" r="1.50"/><circle cx="208" cy="118" r="2.07"/><circle cx="214" cy="118" r="1.96"/><circle cx="220" cy="118" r="1.77"/><circle cx="226" cy="118" r="1.56"/><circle cx="232" cy="118" r="1.40"/><circle cx="340" cy="118" r="1.98"/><circle cx="346" cy="118" r="2.08"/><circle cx="352" cy="118" r="2.09"/><circle cx="358" cy="118" r="1.99"/><circle cx="364" cy="118" r="1.82"/><circle cx="208" cy="124" r="2.06"/><circle cx="214" cy="124" r="2.10"/><circle cx="220" cy="124" r="2.03"/><circle cx="226" cy="124" r="1.88"/><circle cx="232" cy="124" r="1.68"/><circle cx="340" cy="124" r="1.68"/><circle cx="346" cy="124" r="1.88"/><circle cx="352" cy="124" r="2.04"/><circle cx="358" cy="124" r="2.10"/><circle cx="364" cy="124" r="2.06"/><circle cx="208" cy="130" r="1.82"/><circle cx="214" cy="130" r="1.99"/><circle cx="220" cy="130" r="2.09"/><circle cx="226" cy="130" r="2.08"/><circle cx="232" cy="130" r="1.98"/><circle cx="340" cy="130" r="1.40"/><circle cx="346" cy="130" r="1.57"/><circle cx="352" cy="130" r="1.77"/><circle cx="358" cy="130" r="1.96"/><circle cx="364" cy="130" r="2.08"/><circle cx="208" cy="136" r="1.50"/><circle cx="214" cy="136" r="1.70"/><circle cx="220" cy="136" r="1.90"/><circle cx="226" cy="136" r="2.04"/><circle cx="232" cy="136" r="2.10"/><circle cx="340" cy="136" r="1.30"/><circle cx="346" cy="136" r="1.33"/><circle cx="352" cy="136" r="1.46"/><circle cx="358" cy="136" r="1.65"/><circle cx="364" cy="136" r="1.86"/><circle cx="208" cy="142" r="1.31"/><circle cx="214" cy="142" r="1.41"/><circle cx="220" cy="142" r="1.58"/><circle cx="226" cy="142" r="1.79"/><circle cx="232" cy="142" r="1.97"/><circle cx="340" cy="142" r="1.46"/><circle cx="346" cy="142" r="1.33"/><circle cx="352" cy="142" r="1.30"/><circle cx="358" cy="142" r="1.38"/><circle cx="364" cy="142" r="1.54"/><circle cx="208" cy="148" r="1.36"/><circle cx="214" cy="148" r="1.30"/><circle cx="220" cy="148" r="1.34"/><circle cx="226" cy="148" r="1.48"/><circle cx="232" cy="148" r="1.67"/><circle cx="340" cy="148" r="1.77"/><circle cx="346" cy="148" r="1.56"/><circle cx="352" cy="148" r="1.39"/><circle cx="358" cy="148" r="1.31"/><circle cx="364" cy="148" r="1.32"/><circle cx="208" cy="154" r="1.63"/><circle cx="214" cy="154" r="1.44"/><circle cx="220" cy="154" r="1.33"/><circle cx="226" cy="154" r="1.31"/><circle cx="232" cy="154" r="1.39"/><circle cx="238" cy="154" r="1.55"/><circle cx="334" cy="154" r="2.10"/><circle cx="340" cy="154" r="2.03"/><circle cx="346" cy="154" r="1.88"/><circle cx="352" cy="154" r="1.68"/><circle cx="358" cy="154" r="1.48"/><circle cx="364" cy="154" r="1.34"/><circle cx="214" cy="160" r="1.75"/><circle cx="220" cy="160" r="1.54"/><circle cx="226" cy="160" r="1.38"/><circle cx="232" cy="160" r="1.30"/><circle cx="238" cy="160" r="1.33"/><circle cx="244" cy="160" r="1.45"/><circle cx="328" cy="160" r="1.82"/><circle cx="334" cy="160" r="1.99"/><circle cx="340" cy="160" r="2.09"/><circle cx="346" cy="160" r="2.08"/><circle cx="352" cy="160" r="1.98"/><circle cx="358" cy="160" r="1.80"/><circle cx="214" cy="166" r="2.02"/><circle cx="220" cy="166" r="1.86"/><circle cx="226" cy="166" r="1.66"/><circle cx="232" cy="166" r="1.47"/><circle cx="238" cy="166" r="1.34"/><circle cx="244" cy="166" r="1.30"/><circle cx="328" cy="166" r="1.51"/><circle cx="334" cy="166" r="1.70"/><circle cx="340" cy="166" r="1.90"/><circle cx="346" cy="166" r="2.05"/><circle cx="352" cy="166" r="2.10"/><circle cx="358" cy="166" r="2.05"/><circle cx="214" cy="172" r="2.09"/><circle cx="220" cy="172" r="2.08"/><circle cx="226" cy="172" r="1.96"/><circle cx="232" cy="172" r="1.78"/><circle cx="238" cy="172" r="1.57"/><circle cx="244" cy="172" r="1.40"/><circle cx="250" cy="172" r="1.31"/><circle cx="322" cy="172" r="1.31"/><circle cx="328" cy="172" r="1.31"/><circle cx="334" cy="172" r="1.41"/><circle cx="340" cy="172" r="1.59"/><circle cx="346" cy="172" r="1.79"/><circle cx="352" cy="172" r="1.97"/><circle cx="358" cy="172" r="2.08"/><circle cx="220" cy="178" r="2.06"/><circle cx="226" cy="178" r="2.10"/><circle cx="232" cy="178" r="2.04"/><circle cx="238" cy="178" r="1.89"/><circle cx="244" cy="178" r="1.69"/><circle cx="250" cy="178" r="1.49"/><circle cx="256" cy="178" r="1.35"/><circle cx="262" cy="178" r="1.30"/><circle cx="310" cy="178" r="1.91"/><circle cx="316" cy="178" r="1.71"/><circle cx="322" cy="178" r="1.51"/><circle cx="328" cy="178" r="1.36"/><circle cx="334" cy="178" r="1.30"/><circle cx="340" cy="178" r="1.34"/><circle cx="346" cy="178" r="1.48"/><circle cx="352" cy="178" r="1.67"/><circle cx="226" cy="184" r="1.99"/><circle cx="232" cy="184" r="2.09"/><circle cx="238" cy="184" r="2.09"/><circle cx="244" cy="184" r="1.98"/><circle cx="250" cy="184" r="1.81"/><circle cx="256" cy="184" r="1.60"/><circle cx="262" cy="184" r="1.42"/><circle cx="268" cy="184" r="1.32"/><circle cx="274" cy="184" r="1.31"/><circle cx="280" cy="184" r="1.41"/><circle cx="286" cy="184" r="1.58"/><circle cx="292" cy="184" r="1.79"/><circle cx="298" cy="184" r="1.97"/><circle cx="304" cy="184" r="2.08"/><circle cx="310" cy="184" r="2.09"/><circle cx="316" cy="184" r="2.00"/><circle cx="322" cy="184" r="1.83"/><circle cx="328" cy="184" r="1.63"/><circle cx="334" cy="184" r="1.44"/><circle cx="340" cy="184" r="1.32"/><circle cx="346" cy="184" r="1.31"/><circle cx="232" cy="190" r="1.89"/><circle cx="238" cy="190" r="2.04"/><circle cx="244" cy="190" r="2.10"/><circle cx="250" cy="190" r="2.05"/><circle cx="256" cy="190" r="1.92"/><circle cx="262" cy="190" r="1.72"/><circle cx="268" cy="190" r="1.52"/><circle cx="274" cy="190" r="1.37"/><circle cx="280" cy="190" r="1.30"/><circle cx="286" cy="190" r="1.34"/><circle cx="292" cy="190" r="1.47"/><circle cx="298" cy="190" r="1.67"/><circle cx="304" cy="190" r="1.87"/><circle cx="310" cy="190" r="2.03"/><circle cx="316" cy="190" r="2.10"/><circle cx="322" cy="190" r="2.06"/><circle cx="328" cy="190" r="1.94"/><circle cx="334" cy="190" r="1.74"/><circle cx="340" cy="190" r="1.54"/><circle cx="238" cy="196" r="1.78"/><circle cx="244" cy="196" r="1.96"/><circle cx="250" cy="196" r="2.08"/><circle cx="256" cy="196" r="2.09"/><circle cx="262" cy="196" r="2.00"/><circle cx="268" cy="196" r="1.84"/><circle cx="274" cy="196" r="1.63"/><circle cx="280" cy="196" r="1.45"/><circle cx="286" cy="196" r="1.33"/><circle cx="292" cy="196" r="1.30"/><circle cx="298" cy="196" r="1.39"/><circle cx="304" cy="196" r="1.55"/><circle cx="310" cy="196" r="1.76"/><circle cx="316" cy="196" r="1.94"/><circle cx="322" cy="196" r="2.07"/><circle cx="328" cy="196" r="2.10"/><circle cx="334" cy="196" r="2.02"/><circle cx="244" cy="202" r="1.66"/><circle cx="250" cy="202" r="1.86"/><circle cx="256" cy="202" r="2.02"/><circle cx="262" cy="202" r="2.10"/><circle cx="268" cy="202" r="2.07"/><circle cx="274" cy="202" r="1.94"/><circle cx="280" cy="202" r="1.75"/><circle cx="286" cy="202" r="1.55"/><circle cx="292" cy="202" r="1.38"/><circle cx="298" cy="202" r="1.30"/><circle cx="304" cy="202" r="1.33"/><circle cx="310" cy="202" r="1.45"/><circle cx="316" cy="202" r="1.64"/><circle cx="322" cy="202" r="1.84"/><circle cx="328" cy="202" r="2.01"/><circle cx="256" cy="208" r="1.75"/><circle cx="262" cy="208" r="1.94"/><circle cx="268" cy="208" r="2.07"/><circle cx="274" cy="208" r="2.10"/><circle cx="280" cy="208" r="2.02"/><circle cx="286" cy="208" r="1.86"/><circle cx="292" cy="208" r="1.66"/><circle cx="298" cy="208" r="1.47"/><circle cx="304" cy="208" r="1.34"/><circle cx="310" cy="208" r="1.30"/><circle cx="316" cy="208" r="1.37"/><circle cx="280" cy="214" r="2.09"/><circle cx="286" cy="214" r="2.08"/><circle cx="292" cy="214" r="1.96"/><circle cx="298" cy="214" r="1.78"/><circle cx="280" cy="220" r="1.91"/><circle cx="286" cy="220" r="2.05"/><circle cx="292" cy="220" r="2.10"/><circle cx="298" cy="220" r="2.04"/><circle cx="280" cy="226" r="1.60"/><circle cx="286" cy="226" r="1.81"/><circle cx="292" cy="226" r="1.98"/><circle cx="298" cy="226" r="2.09"/><circle cx="280" cy="232" r="1.35"/><circle cx="286" cy="232" r="1.49"/><circle cx="292" cy="232" r="1.69"/><circle cx="298" cy="232" r="1.89"/><circle cx="280" cy="238" r="1.32"/><circle cx="286" cy="238" r="1.31"/><circle cx="292" cy="238" r="1.40"/><circle cx="298" cy="238" r="1.57"/><circle cx="280" cy="244" r="1.53"/><circle cx="286" cy="244" r="1.37"/><circle cx="292" cy="244" r="1.30"/><circle cx="298" cy="244" r="1.34"/><circle cx="280" cy="250" r="1.85"/><circle cx="286" cy="250" r="1.64"/><circle cx="292" cy="250" r="1.45"/><circle cx="298" cy="250" r="1.33"/><circle cx="280" cy="256" r="2.07"/><circle cx="286" cy="256" r="1.95"/><circle cx="292" cy="256" r="1.76"/><circle cx="298" cy="256" r="1.56"/><circle cx="280" cy="262" r="2.06"/><circle cx="286" cy="262" r="2.10"/><circle cx="292" cy="262" r="2.03"/><circle cx="298" cy="262" r="1.87"/><circle cx="280" cy="268" r="1.83"/><circle cx="286" cy="268" r="2.00"/><circle cx="292" cy="268" r="2.09"/><circle cx="298" cy="268" r="2.08"/><circle cx="304" cy="268" r="1.97"/><circle cx="310" cy="268" r="1.79"/><circle cx="316" cy="268" r="1.58"/><circle cx="322" cy="268" r="1.41"/><circle cx="328" cy="268" r="1.31"/><circle cx="334" cy="268" r="1.32"/><circle cx="280" cy="274" r="1.51"/><circle cx="286" cy="274" r="1.71"/><circle cx="292" cy="274" r="1.91"/><circle cx="298" cy="274" r="2.05"/><circle cx="304" cy="274" r="2.10"/><circle cx="310" cy="274" r="2.05"/><circle cx="316" cy="274" r="1.90"/><circle cx="322" cy="274" r="1.70"/><circle cx="328" cy="274" r="1.50"/><circle cx="334" cy="274" r="1.36"/><circle cx="280" cy="280" r="1.31"/><circle cx="286" cy="280" r="1.42"/><circle cx="292" cy="280" r="1.59"/><circle cx="298" cy="280" r="1.80"/><circle cx="304" cy="280" r="1.98"/><circle cx="310" cy="280" r="2.08"/><circle cx="316" cy="280" r="2.09"/><circle cx="322" cy="280" r="1.99"/><circle cx="328" cy="280" r="1.82"/><circle cx="334" cy="280" r="1.61"/><circle cx="280" cy="286" r="1.36"/><circle cx="286" cy="286" r="1.30"/><circle cx="292" cy="286" r="1.35"/><circle cx="298" cy="286" r="1.48"/><circle cx="304" cy="286" r="1.68"/><circle cx="310" cy="286" r="1.88"/><circle cx="316" cy="286" r="2.03"/><circle cx="322" cy="286" r="2.10"/><circle cx="328" cy="286" r="2.06"/><circle cx="334" cy="286" r="1.93"/><circle cx="280" cy="292" r="1.62"/><circle cx="286" cy="292" r="1.44"/><circle cx="292" cy="292" r="1.32"/><circle cx="298" cy="292" r="1.31"/><circle cx="280" cy="298" r="1.93"/><circle cx="286" cy="298" r="1.74"/><circle cx="292" cy="298" r="1.54"/><circle cx="298" cy="298" r="1.38"/><circle cx="280" cy="304" r="2.10"/><circle cx="286" cy="304" r="2.02"/><circle cx="292" cy="304" r="1.85"/><circle cx="298" cy="304" r="1.65"/><circle cx="280" cy="310" r="2.01"/><circle cx="286" cy="310" r="2.10"/><circle cx="292" cy="310" r="2.07"/><circle cx="298" cy="310" r="1.96"/><circle cx="304" cy="310" r="1.77"/><circle cx="310" cy="310" r="1.56"/><circle cx="316" cy="310" r="1.40"/><circle cx="322" cy="310" r="1.31"/><circle cx="280" cy="316" r="1.73"/><circle cx="286" cy="316" r="1.92"/><circle cx="292" cy="316" r="2.06"/><circle cx="298" cy="316" r="2.10"/><circle cx="304" cy="316" r="2.03"/><circle cx="310" cy="316" r="1.88"/><circle cx="316" cy="316" r="1.68"/><circle cx="322" cy="316" r="1.49"/><circle cx="292" cy="322" r="1.82"/><circle cx="298" cy="322" r="1.99"/><circle cx="304" cy="322" r="2.09"/><circle cx="310" cy="322" r="2.08"/><circle cx="316" cy="322" r="1.98"/><circle cx="322" cy="322" r="1.80"/><circle cx="292" cy="328" r="1.50"/><circle cx="298" cy="328" r="1.70"/><circle cx="304" cy="328" r="1.90"/><circle cx="310" cy="328" r="2.04"/><circle cx="316" cy="328" r="2.10"/><circle cx="322" cy="328" r="2.05"/></g><g stroke="#174D36" fill="none"><path d="M368 95h89M339 289h118"/><circle cx="457" cy="95" r="3" fill="#174D36"/><circle cx="457" cy="289" r="3" fill="#174D36"/></g><g fill="#174D36" font-family="monospace" font-size="9" letter-spacing="1.6"><text x="404" y="83">IDENTITY</text><text x="410" y="309">POSSESSION</text><text x="54" y="183" transform="rotate(-90 54 183)">SWIFTKEY / FIELDWORK</text></g></svg>
